<svg xmlns="http://www.w3.org/2000/svg" viewBox="0 0 880 280" width="100%" preserveAspectRatio="xMidYMid meet" role="img" aria-label="Relio downloads — 35 on 2026-10-02">
<style>text{font-family:ui-monospace, SFMono-Regular, Menlo, Consolas, monospace;font-size:11px;fill:#8b8b8b}</style>
<text x="56" y="18" font-size="12">Relio downloads</text>
<line x1="56" y1="246" x2="856" y2="246" stroke="#8b8b8b" stroke-opacity="0.18"/>
<text x="48" y="250" text-anchor="end">0</text>
<line x1="56" y1="137" x2="856" y2="137" stroke="#8b8b8b" stroke-opacity="0.18"/>
<text x="48" y="141" text-anchor="end">25</text>
<line x1="56" y1="28" x2="856" y2="28" stroke="#8b8b8b" stroke-opacity="0.18"/>
<text x="48" y="32" text-anchor="end">50</text>
<path d="M 56,246 L 56,181 88,181 120,181 152,177 184,133 216,111 248,107 280,107 312,98 344,94 376,94 408,94 440,94 472,94 504,94 536,94 568,94 600,94 632,94 664,94 696,94 728,94 760,94 792,94 824,94 856,94 L 856,246 Z" fill="#F5872B" fill-opacity="0.08"/>
<polyline points="56,181 88,181 120,181 152,177 184,133 216,111 248,107 280,107 312,98 344,94 376,94 408,94 440,94 472,94 504,94 536,94 568,94 600,94 632,94 664,94 696,94 728,94 760,94 792,94 824,94 856,94" fill="none" stroke="#F5872B" stroke-width="2" stroke-linejoin="round" stroke-linecap="round"/>
<line x1="56" y1="246" x2="856" y2="246" stroke="#8b8b8b" stroke-opacity="0.4"/>
<text x="56" y="264" text-anchor="start">Sep 7</text>
<text x="472" y="264" text-anchor="middle">Sep 20</text>
<text x="856" y="264" text-anchor="end">Oct 2</text>
<text x="856" y="14" text-anchor="end" fill="#F5872B" fill-opacity="0.55" font-size="10">relio</text>
</svg>
